# WaveFront *.obj file (generated by Autodesk ATF)

mtllib roof.mtl

g roof

v 1.732051 18.561356 -6.700000
v 1.732051 18.561356 -4.700000
v 1.632051 18.388151 -4.700000
v 1.632051 18.388151 -6.700000
v 6.062178 16.061356 -4.700000
v 5.962178 15.888151 -4.700000
v 6.062178 16.061356 -6.700000
v 5.962178 15.888151 -6.700000
v 1.732051 18.561356 -1.000000
v 1.732051 18.561356 1.000000
v 1.632051 18.388151 1.000000
v 1.632051 18.388151 -1.000000
v 6.062178 16.061356 1.000000
v 5.962178 15.888151 1.000000
v 6.062178 16.061356 -1.000000
v 5.962178 15.888151 -1.000000
v 6.062178 16.061356 4.700000
v 1.732051 18.561356 4.700000
v 1.632051 18.388151 4.700000
v 5.962178 15.888151 4.700000
v 1.732051 18.561356 6.700000
v 1.632051 18.388151 6.700000
v 6.062178 16.061356 6.700000
v 5.962178 15.888151 6.700000
v -6.062178 16.061356 -4.700000
v -1.732051 18.561356 -4.700000
v -1.632051 18.388151 -4.700000
v -5.962178 15.888151 -4.700000
v -1.732051 18.561356 -6.700000
v -1.632051 18.388151 -6.700000
v -6.062178 16.061356 -6.700000
v -5.962178 15.888151 -6.700000
v -1.732051 18.561356 1.000000
v -1.732051 18.561356 -1.000000
v -1.632051 18.388151 -1.000000
v -1.632051 18.388151 1.000000
v -6.062178 16.061356 -1.000000
v -5.962178 15.888151 -1.000000
v -6.062178 16.061356 1.000000
v -5.962178 15.888151 1.000000
v -1.732051 18.561356 6.700000
v -1.732051 18.561356 4.700000
v -1.632051 18.388151 4.700000
v -1.632051 18.388151 6.700000
v -6.062178 16.061356 4.700000
v -5.962178 15.888151 4.700000
v -6.062178 16.061356 6.700000
v -5.962178 15.888151 6.700000
v 7.500500 15.000000 -7.500000
v -7.500500 15.000000 -7.500000
v -7.500500 15.000000 -7.700000
v 7.500500 15.000000 -7.700000
v 0.000000 19.330416 -7.700000
v 0.000000 19.330416 -7.500000
v 0.000000 19.561356 -8.700000
v 8.500500 14.653590 -8.700000
v 8.400500 14.480385 -8.700000
v 0.000000 19.330416 -8.700000
v -8.400500 14.480385 -8.700000
v -8.500500 14.653590 -8.700000
v -7.500500 15.000000 7.500000
v 7.500500 15.000000 7.500000
v 7.500500 15.000000 7.700000
v -7.500500 15.000000 7.700000
v 0.000000 19.330416 7.700000
v 0.000000 19.330416 8.700000
v -8.400500 14.480385 8.700000
v 0.000000 19.330416 7.500000
v 8.500500 14.653590 8.700000
v 8.400500 14.480385 8.700000
v -8.500500 14.653590 8.700000
v 0.000000 19.561356 8.700000
vt -200.000000 0.000000 0.000000
vt -0.000000 -0.000000 0.000000
vt -200.000000 20.000000 0.000000
vt 0.000000 20.000000 0.000000
vt -500.000000 0.000000 0.000000
vt -0.000000 -0.000000 0.000000
vt -500.000000 20.000000 0.000000
vt -0.000000 20.000000 0.000000
vt -200.000000 -0.000000 0.000000
vt -0.000000 -0.000000 0.000000
vt -200.000000 20.000000 0.000000
vt -0.000000 20.000000 0.000000
vt -500.000000 -0.000000 0.000000
vt -0.000000 -0.000000 0.000000
vt -500.000000 20.000000 0.000000
vt 0.000000 20.000000 0.000000
vt -200.000000 0.000000 0.000000
vt -0.000000 -0.000000 0.000000
vt -200.000000 20.000000 0.000000
vt -0.000000 20.000000 0.000000
vt -500.000000 0.000000 0.000000
vt -0.000000 -0.000000 0.000000
vt -500.000000 20.000000 0.000000
vt -0.000000 20.000000 0.000000
vt -200.000000 -0.000000 0.000000
vt -0.000000 -0.000000 0.000000
vt -200.000000 20.000000 0.000000
vt 0.000000 20.000000 0.000000
vt -500.000000 -0.000000 0.000000
vt -0.000000 -0.000000 0.000000
vt -500.000000 20.000000 0.000000
vt 0.000000 20.000000 0.000000
vt -500.000000 -0.000000 0.000000
vt -0.000000 -0.000000 0.000000
vt -500.000000 20.000000 0.000000
vt 0.000000 20.000000 0.000000
vt -200.000000 0.000000 0.000000
vt -0.000000 -0.000000 0.000000
vt -200.000000 20.000000 0.000000
vt 0.000000 20.000000 0.000000
vt -500.000000 0.000000 0.000000
vt -0.000000 -0.000000 0.000000
vt -500.000000 20.000000 0.000000
vt -0.000000 20.000000 0.000000
vt -200.000000 -0.000000 0.000000
vt -0.000000 -0.000000 0.000000
vt -200.000000 20.000000 0.000000
vt -0.000000 20.000000 0.000000
vt -500.000000 0.000000 0.000000
vt 0.000000 0.000000 0.000000
vt -500.000000 20.000000 0.000000
vt 0.000000 20.000000 0.000000
vt -200.000000 -0.000000 0.000000
vt 0.000000 0.000000 0.000000
vt -200.000000 20.000000 0.000000
vt -0.000000 20.000000 0.000000
vt -500.000000 -0.000000 0.000000
vt -0.000000 0.000000 0.000000
vt -500.000000 20.000000 0.000000
vt 0.000000 20.000000 0.000000
vt -200.000000 0.000000 0.000000
vt -0.000000 0.000000 0.000000
vt -200.000000 20.000000 0.000000
vt 0.000000 20.000000 0.000000
vt -200.000000 -0.000000 0.000000
vt -0.000000 0.000000 0.000000
vt -200.000000 20.000000 0.000000
vt 0.000000 20.000000 0.000000
vt -500.000000 -0.000000 0.000000
vt -0.000000 0.000000 0.000000
vt -500.000000 20.000000 0.000000
vt 0.000000 20.000000 0.000000
vt -200.000000 0.000000 0.000000
vt -0.000000 0.000000 0.000000
vt -200.000000 20.000000 0.000000
vt -0.000000 20.000000 0.000000
vt -500.000000 0.000000 0.000000
vt 0.000000 0.000000 0.000000
vt -500.000000 20.000000 0.000000
vt 0.000000 20.000000 0.000000
vt -200.000000 -0.000000 0.000000
vt -0.000000 0.000000 0.000000
vt -200.000000 20.000000 0.000000
vt -0.000000 20.000000 0.000000
vt -500.000000 -0.000000 0.000000
vt -0.000000 0.000000 0.000000
vt -500.000000 20.000000 0.000000
vt 0.000000 20.000000 0.000000
vt -200.000000 0.000000 0.000000
vt -0.000000 0.000000 0.000000
vt -200.000000 20.000000 0.000000
vt 0.000000 20.000000 0.000000
vt -500.000000 0.000000 0.000000
vt 0.000000 0.000000 0.000000
vt -500.000000 20.000000 0.000000
vt 0.000000 20.000000 0.000000
vt 0.000000 0.000000 0.000000
vt 1500.100000 0.000000 0.000000
vt -0.000000 20.000000 0.000000
vt 1500.100000 20.000000 0.000000
vt -216.520785 0.000000 0.000000
vt 216.520785 -750.050000 0.000000
vt 216.520785 750.050000 0.000000
vt 0.000000 -230.954541 0.000000
vt 750.050000 202.087028 0.000000
vt -750.050000 202.087028 0.000000
vt 236.728044 850.050000 0.000000
vt -254.048552 0.000000 0.000000
vt -230.954541 0.000000 0.000000
vt 236.728044 -850.050000 0.000000
vt 254.048552 -840.050000 0.000000
vt 254.048552 840.050000 0.000000
vt 0.000000 0.000000 0.000000
vt 1500.100000 0.000000 0.000000
vt -0.000000 20.000000 0.000000
vt 1500.100000 20.000000 0.000000
vt -216.520785 -750.050000 0.000000
vt 216.520785 0.000000 0.000000
vt -216.520785 750.050000 0.000000
vt 781.553192 -1220.000000 0.000000
vt 281.553192 -850.000000 0.000000
vt 281.553192 -1220.000000 0.000000
vt 103.923048 -1500.000000 0.000000
vt 281.553192 -1420.000000 0.000000
vt 781.553192 -1420.000000 0.000000
vt 970.006187 -1500.000000 0.000000
vt 781.553192 -850.000000 0.000000
vt 781.553192 -650.000000 0.000000
vt 970.006187 0.000000 0.000000
vt 781.553192 -280.000000 0.000000
vt 781.553192 -80.000000 0.000000
vt 103.923048 -0.000000 0.000000
vt 281.553192 -80.000000 0.000000
vt 281.553192 -280.000000 0.000000
vt 281.553192 -650.000000 0.000000
vt -0.000000 -1620.000000 0.000000
vt 0.000000 120.000000 0.000000
vt 103.923048 20.000000 0.000000
vt 970.006187 20.000000 0.000000
vt 970.006187 120.000000 0.000000
vt 103.923048 -1520.000000 0.000000
vt 970.006187 -1620.000000 0.000000
vt 970.006187 -1520.000000 0.000000
vt 20.000000 120.000000 0.000000
vt 0.000000 120.000000 0.000000
vt 20.000000 -1620.000000 0.000000
vt -0.000000 -1620.000000 0.000000
vt 188.452994 -1220.000000 0.000000
vt 0.000000 -1500.000000 0.000000
vt 188.452994 -1420.000000 0.000000
vt 866.083138 -1500.000000 0.000000
vt 688.452994 -1420.000000 0.000000
vt 688.452994 -1220.000000 0.000000
vt 688.452994 -850.000000 0.000000
vt 188.452994 -850.000000 0.000000
vt 188.452994 -650.000000 0.000000
vt 0.000000 0.000000 0.000000
vt 188.452994 -280.000000 0.000000
vt 188.452994 -80.000000 0.000000
vt 688.452994 -650.000000 0.000000
vt 688.452994 -280.000000 0.000000
vt 866.083138 -0.000000 0.000000
vt 688.452994 -80.000000 0.000000
vt 970.006186 -1620.000000 0.000000
vt 970.006186 120.000000 0.000000
vt 866.083138 20.000000 0.000000
vt -0.000000 120.000000 0.000000
vt -0.000000 20.000000 0.000000
vt 866.083138 -1520.000000 0.000000
vt 0.000000 -1620.000000 0.000000
vt 0.000000 -1520.000000 0.000000
vt 20.000000 120.000000 0.000000
vt 0.000000 120.000000 0.000000
vt 20.000000 -1620.000000 0.000000
vt 0.000000 -1620.000000 0.000000
vt 700.000000 -1220.000000 0.000000
vt 200.000000 -850.000000 0.000000
vt 200.000000 -1220.000000 0.000000
vt 0.000000 -1620.000000 0.000000
vt 200.000000 -1420.000000 0.000000
vt 700.000000 -1420.000000 0.000000
vt 981.553193 -1620.000000 0.000000
vt 700.000000 -850.000000 0.000000
vt 200.000000 -650.000000 0.000000
vt -0.000000 120.000000 0.000000
vt 200.000000 -280.000000 0.000000
vt 200.000000 -80.000000 0.000000
vt 700.000000 -650.000000 0.000000
vt 700.000000 -280.000000 0.000000
vt 981.553193 120.000000 0.000000
vt 700.000000 -80.000000 0.000000
vt 781.553192 -1420.000000 0.000000
vt 981.553192 -1620.000000 0.000000
vt 781.553192 -1220.000000 0.000000
vt 781.553192 -850.000000 0.000000
vt 281.553192 -850.000000 0.000000
vt 281.553192 -1420.000000 0.000000
vt -0.000000 -1620.000000 0.000000
vt 281.553192 -1220.000000 0.000000
vt 781.553192 -650.000000 0.000000
vt 981.553192 120.000000 0.000000
vt 781.553192 -280.000000 0.000000
vt 781.553192 -80.000000 0.000000
vt 281.553192 -80.000000 0.000000
vt 0.000000 120.000000 0.000000
vt 281.553192 -280.000000 0.000000
vt 281.553192 -650.000000 0.000000
vt -254.048552 -840.050000 0.000000
vt -236.728044 -850.050000 0.000000
vt 230.954541 0.000000 0.000000
vt 254.048552 0.000000 0.000000
vt -236.728044 850.050000 0.000000
vt -254.048552 840.050000 0.000000
vt -0.000000 -230.954541 0.000000
vt 750.050000 202.087028 0.000000
vt -750.050000 202.087028 0.000000
vn 86.602540 -50.000000 -0.000000
vn 86.602540 -50.000000 -0.000000
vn 86.602540 -50.000000 -0.000000
vn 86.602540 -50.000000 -0.000000
vn 0.000000 0.000000 -100.000000
vn 0.000000 0.000000 -100.000000
vn 0.000000 0.000000 -100.000000
vn 0.000000 0.000000 -100.000000
vn -86.602540 50.000000 0.000000
vn -86.602540 50.000000 0.000000
vn -86.602540 50.000000 0.000000
vn -86.602540 50.000000 0.000000
vn -0.000000 -0.000000 100.000000
vn -0.000000 -0.000000 100.000000
vn -0.000000 -0.000000 100.000000
vn -0.000000 -0.000000 100.000000
vn 86.602540 -50.000000 -0.000000
vn 86.602540 -50.000000 -0.000000
vn 86.602540 -50.000000 -0.000000
vn 86.602540 -50.000000 -0.000000
vn 0.000000 0.000000 -100.000000
vn 0.000000 0.000000 -100.000000
vn 0.000000 0.000000 -100.000000
vn 0.000000 0.000000 -100.000000
vn -86.602540 50.000000 0.000000
vn -86.602540 50.000000 0.000000
vn -86.602540 50.000000 0.000000
vn -86.602540 50.000000 0.000000
vn -0.000000 -0.000000 100.000000
vn -0.000000 -0.000000 100.000000
vn -0.000000 -0.000000 100.000000
vn -0.000000 -0.000000 100.000000
vn -0.000000 -0.000000 100.000000
vn -0.000000 -0.000000 100.000000
vn -0.000000 -0.000000 100.000000
vn -0.000000 -0.000000 100.000000
vn 86.602540 -50.000000 -0.000000
vn 86.602540 -50.000000 -0.000000
vn 86.602540 -50.000000 -0.000000
vn 86.602540 -50.000000 -0.000000
vn 0.000000 0.000000 -100.000000
vn 0.000000 0.000000 -100.000000
vn 0.000000 0.000000 -100.000000
vn 0.000000 0.000000 -100.000000
vn -86.602540 50.000000 0.000000
vn -86.602540 50.000000 0.000000
vn -86.602540 50.000000 0.000000
vn -86.602540 50.000000 0.000000
vn 0.000000 0.000000 -100.000000
vn 0.000000 0.000000 -100.000000
vn 0.000000 0.000000 -100.000000
vn 0.000000 0.000000 -100.000000
vn -86.602540 -50.000000 -0.000000
vn -86.602540 -50.000000 -0.000000
vn -86.602540 -50.000000 -0.000000
vn -86.602540 -50.000000 -0.000000
vn -0.000000 -0.000000 100.000000
vn -0.000000 -0.000000 100.000000
vn -0.000000 -0.000000 100.000000
vn -0.000000 -0.000000 100.000000
vn 86.602540 50.000000 0.000000
vn 86.602540 50.000000 0.000000
vn 86.602540 50.000000 0.000000
vn 86.602540 50.000000 0.000000
vn -86.602540 -50.000000 -0.000000
vn -86.602540 -50.000000 -0.000000
vn -86.602540 -50.000000 -0.000000
vn -86.602540 -50.000000 -0.000000
vn -0.000000 -0.000000 100.000000
vn -0.000000 -0.000000 100.000000
vn -0.000000 -0.000000 100.000000
vn -0.000000 -0.000000 100.000000
vn 86.602540 50.000000 0.000000
vn 86.602540 50.000000 0.000000
vn 86.602540 50.000000 0.000000
vn 86.602540 50.000000 0.000000
vn 0.000000 0.000000 -100.000000
vn 0.000000 0.000000 -100.000000
vn 0.000000 0.000000 -100.000000
vn 0.000000 0.000000 -100.000000
vn -86.602540 -50.000000 -0.000000
vn -86.602540 -50.000000 -0.000000
vn -86.602540 -50.000000 -0.000000
vn -86.602540 -50.000000 -0.000000
vn -0.000000 -0.000000 100.000000
vn -0.000000 -0.000000 100.000000
vn -0.000000 -0.000000 100.000000
vn -0.000000 -0.000000 100.000000
vn 86.602540 50.000000 0.000000
vn 86.602540 50.000000 0.000000
vn 86.602540 50.000000 0.000000
vn 86.602540 50.000000 0.000000
vn 0.000000 0.000000 -100.000000
vn 0.000000 0.000000 -100.000000
vn 0.000000 0.000000 -100.000000
vn 0.000000 0.000000 -100.000000
vn -0.000000 -100.000000 -0.000000
vn -0.000000 -100.000000 -0.000000
vn -0.000000 -100.000000 -0.000000
vn -0.000000 -100.000000 -0.000000
vn 0.000000 0.000000 -100.000000
vn 0.000000 0.000000 -100.000000
vn 0.000000 0.000000 -100.000000
vn -0.000000 -0.000000 100.000000
vn -0.000000 -0.000000 100.000000
vn -0.000000 -0.000000 100.000000
vn 0.000000 0.000000 -100.000000
vn 0.000000 0.000000 -100.000000
vn 0.000000 0.000000 -100.000000
vn 0.000000 0.000000 -100.000000
vn 0.000000 0.000000 -100.000000
vn 0.000000 0.000000 -100.000000
vn -0.000000 -100.000000 -0.000000
vn -0.000000 -100.000000 -0.000000
vn -0.000000 -100.000000 -0.000000
vn -0.000000 -100.000000 -0.000000
vn -0.000000 -0.000000 100.000000
vn -0.000000 -0.000000 100.000000
vn -0.000000 -0.000000 100.000000
vn 50.000000 -86.602540 -0.000000
vn 50.000000 -86.602540 -0.000000
vn 50.000000 -86.602540 -0.000000
vn 50.000000 -86.602540 -0.000000
vn 50.000000 -86.602540 -0.000000
vn 50.000000 -86.602540 -0.000000
vn 50.000000 -86.602540 -0.000000
vn 50.000000 -86.602540 -0.000000
vn 50.000000 -86.602540 -0.000000
vn 50.000000 -86.602540 -0.000000
vn 50.000000 -86.602540 -0.000000
vn 50.000000 -86.602540 -0.000000
vn 50.000000 -86.602540 -0.000000
vn 50.000000 -86.602540 -0.000000
vn 50.000000 -86.602540 -0.000000
vn 50.000000 -86.602540 -0.000000
vn 50.000000 -86.602540 -0.000000
vn 50.000000 -86.602540 -0.000000
vn 50.000000 -86.602540 -0.000000
vn 50.000000 -86.602540 -0.000000
vn 50.000000 -86.602540 -0.000000
vn 50.000000 -86.602540 -0.000000
vn 50.000000 -86.602540 -0.000000
vn 50.000000 -86.602540 -0.000000
vn 86.602540 -50.000000 -0.000000
vn 86.602540 -50.000000 -0.000000
vn 86.602540 -50.000000 -0.000000
vn 86.602540 -50.000000 -0.000000
vn -50.000000 -86.602540 -0.000000
vn -50.000000 -86.602540 -0.000000
vn -50.000000 -86.602540 -0.000000
vn -50.000000 -86.602540 -0.000000
vn -50.000000 -86.602540 -0.000000
vn -50.000000 -86.602540 -0.000000
vn -50.000000 -86.602540 -0.000000
vn -50.000000 -86.602540 -0.000000
vn -50.000000 -86.602540 -0.000000
vn -50.000000 -86.602540 -0.000000
vn -50.000000 -86.602540 -0.000000
vn -50.000000 -86.602540 -0.000000
vn -50.000000 -86.602540 -0.000000
vn -50.000000 -86.602540 -0.000000
vn -50.000000 -86.602540 -0.000000
vn -50.000000 -86.602540 -0.000000
vn -50.000000 -86.602540 -0.000000
vn -50.000000 -86.602540 -0.000000
vn -50.000000 -86.602540 -0.000000
vn -50.000000 -86.602540 -0.000000
vn -50.000000 -86.602540 -0.000000
vn -50.000000 -86.602540 -0.000000
vn -50.000000 -86.602540 -0.000000
vn -50.000000 -86.602540 -0.000000
vn -86.602540 -50.000000 -0.000000
vn -86.602540 -50.000000 -0.000000
vn -86.602540 -50.000000 -0.000000
vn -86.602540 -50.000000 -0.000000
vn -50.000000 86.602540 0.000000
vn -50.000000 86.602540 0.000000
vn -50.000000 86.602540 0.000000
vn -50.000000 86.602540 0.000000
vn -50.000000 86.602540 0.000000
vn -50.000000 86.602540 0.000000
vn -50.000000 86.602540 0.000000
vn -50.000000 86.602540 0.000000
vn -50.000000 86.602540 0.000000
vn -50.000000 86.602540 0.000000
vn -50.000000 86.602540 0.000000
vn -50.000000 86.602540 0.000000
vn -50.000000 86.602540 0.000000
vn -50.000000 86.602540 0.000000
vn -50.000000 86.602540 0.000000
vn -50.000000 86.602540 0.000000
vn 50.000000 86.602540 0.000000
vn 50.000000 86.602540 0.000000
vn 50.000000 86.602540 0.000000
vn 50.000000 86.602540 0.000000
vn 50.000000 86.602540 0.000000
vn 50.000000 86.602540 0.000000
vn 50.000000 86.602540 0.000000
vn 50.000000 86.602540 0.000000
vn 50.000000 86.602540 0.000000
vn 50.000000 86.602540 0.000000
vn 50.000000 86.602540 0.000000
vn 50.000000 86.602540 0.000000
vn 50.000000 86.602540 0.000000
vn 50.000000 86.602540 0.000000
vn 50.000000 86.602540 0.000000
vn 50.000000 86.602540 0.000000
vn -0.000000 -0.000000 100.000000
vn -0.000000 -0.000000 100.000000
vn -0.000000 -0.000000 100.000000
vn -0.000000 -0.000000 100.000000
vn -0.000000 -0.000000 100.000000
vn -0.000000 -0.000000 100.000000
vn 0.000000 0.000000 -100.000000
vn 0.000000 0.000000 -100.000000
vn 0.000000 0.000000 -100.000000
usemtl Steel_-_Satin
f 1/1/1 2/2/2 4/3/3
f 4/3/3 2/2/2 3/4/4
f 2/5/5 5/6/6 3/7/7
f 3/7/7 5/6/6 6/8/8
f 5/9/9 7/10/10 6/11/11
f 6/11/11 7/10/10 8/12/12
f 7/13/13 1/14/14 8/15/15
f 8/15/15 1/14/14 4/16/16
f 9/17/17 10/18/18 12/19/19
f 12/19/19 10/18/18 11/20/20
f 10/21/21 13/22/22 11/23/23
f 11/23/23 13/22/22 14/24/24
f 13/25/25 15/26/26 14/27/27
f 14/27/27 15/26/26 16/28/28
f 15/29/29 9/30/30 16/31/31
f 16/31/31 9/30/30 12/32/32
f 17/33/33 18/34/34 20/35/35
f 20/35/35 18/34/34 19/36/36
f 18/37/37 21/38/38 19/39/39
f 19/39/39 21/38/38 22/40/40
f 21/41/41 23/42/42 22/43/43
f 22/43/43 23/42/42 24/44/44
f 23/45/45 17/46/46 24/47/47
f 24/47/47 17/46/46 20/48/48
f 25/49/49 26/50/50 28/51/51
f 28/51/51 26/50/50 27/52/52
f 26/53/53 29/54/54 27/55/55
f 27/55/55 29/54/54 30/56/56
f 29/57/57 31/58/58 30/59/59
f 30/59/59 31/58/58 32/60/60
f 31/61/61 25/62/62 32/63/63
f 32/63/63 25/62/62 28/64/64
f 33/65/65 34/66/66 36/67/67
f 36/67/67 34/66/66 35/68/68
f 34/69/69 37/70/70 35/71/71
f 35/71/71 37/70/70 38/72/72
f 37/73/73 39/74/74 38/75/75
f 38/75/75 39/74/74 40/76/76
f 39/77/77 33/78/78 40/79/79
f 40/79/79 33/78/78 36/80/80
f 41/81/81 42/82/82 44/83/83
f 44/83/83 42/82/82 43/84/84
f 42/85/85 45/86/86 43/87/87
f 43/87/87 45/86/86 46/88/88
f 45/89/89 47/90/90 46/91/91
f 46/91/91 47/90/90 48/92/92
f 47/93/93 41/94/94 48/95/95
f 48/95/95 41/94/94 44/96/96
f 49/97/97 50/98/98 52/99/99
f 52/99/99 50/98/98 51/100/100
f 53/101/101 52/102/102 51/103/103
f 54/104/104 50/105/105 49/106/106
f 60/107/107 55/108/108 58/109/109
f 58/109/109 55/108/108 56/110/110
f 58/109/109 56/110/110 57/111/111
f 58/109/109 59/112/112 60/107/107
f 61/113/113 62/114/114 64/115/115
f 64/115/115 62/114/114 63/116/116
f 63/117/117 65/118/118 64/119/119
f 27/120/120 38/121/121 28/122/122
f 28/122/122 38/121/121 50/123/123
f 28/122/122 50/123/123 32/124/124
f 32/124/124 50/123/123 30/125/125
f 30/125/125 50/123/123 54/126/126
f 30/125/125 54/126/126 27/120/120
f 27/120/120 54/126/126 35/127/127
f 27/120/120 35/127/127 38/121/121
f 35/127/127 54/126/126 36/128/128
f 36/128/128 54/126/126 68/129/129
f 36/128/128 68/129/129 43/130/130
f 43/130/130 68/129/129 44/131/131
f 44/131/131 68/129/129 61/132/132
f 44/131/131 61/132/132 48/133/133
f 48/133/133 61/132/132 46/134/134
f 46/134/134 61/132/132 40/135/135
f 46/134/134 40/135/135 36/128/128
f 50/123/123 38/121/121 59/136/136
f 59/136/136 38/121/121 40/135/135
f 59/136/136 40/135/135 67/137/137
f 67/137/137 40/135/135 61/132/132
f 67/137/137 61/132/132 64/138/138
f 43/130/130 46/134/134 36/128/128
f 65/139/139 66/140/140 64/138/138
f 64/138/138 66/140/140 67/137/137
f 50/123/123 59/136/136 51/141/141
f 51/141/141 59/136/136 58/142/142
f 51/141/141 58/142/142 53/143/143
f 69/144/144 70/145/145 56/146/146
f 56/146/146 70/145/145 57/147/147
f 3/148/148 54/149/149 4/150/150
f 4/150/150 54/149/149 49/151/151
f 4/150/150 49/151/151 8/152/152
f 8/152/152 49/151/151 6/153/153
f 6/153/153 49/151/151 16/154/154
f 6/153/153 16/154/154 12/155/155
f 54/149/149 3/148/148 12/155/155
f 12/155/155 3/148/148 6/153/153
f 12/155/155 11/156/156 54/149/149
f 54/149/149 11/156/156 68/157/157
f 68/157/157 11/156/156 19/158/158
f 68/157/157 19/158/158 22/159/159
f 11/156/156 14/160/160 19/158/158
f 19/158/158 14/160/160 20/161/161
f 20/161/161 14/160/160 62/162/162
f 20/161/161 62/162/162 24/163/163
f 24/163/163 62/162/162 22/159/159
f 22/159/159 62/162/162 68/157/157
f 16/154/154 57/164/164 14/160/160
f 14/160/160 57/164/164 70/165/165
f 14/160/160 70/165/165 62/162/162
f 62/162/162 70/165/165 63/166/166
f 63/166/166 70/165/165 66/167/167
f 63/166/166 66/167/167 65/168/168
f 16/154/154 49/151/151 57/164/164
f 57/164/164 49/151/151 52/169/169
f 57/164/164 52/169/169 58/170/170
f 58/170/170 52/169/169 53/171/171
f 67/172/172 71/173/173 59/174/174
f 59/174/174 71/173/173 60/175/175
f 25/176/176 34/177/177 26/178/178
f 26/178/178 34/177/177 55/179/179
f 26/178/178 55/179/179 29/180/180
f 29/180/180 55/179/179 31/181/181
f 31/181/181 55/179/179 60/182/182
f 31/181/181 60/182/182 25/176/176
f 25/176/176 60/182/182 37/183/183
f 25/176/176 37/183/183 34/177/177
f 34/177/177 33/184/184 55/179/179
f 55/179/179 33/184/184 72/185/185
f 72/185/185 33/184/184 42/186/186
f 72/185/185 42/186/186 41/187/187
f 33/184/184 39/188/188 42/186/186
f 42/186/186 39/188/188 45/189/189
f 45/189/189 39/188/188 71/190/190
f 45/189/189 71/190/190 47/191/191
f 47/191/191 71/190/190 72/185/185
f 47/191/191 72/185/185 41/187/187
f 71/190/190 39/188/188 60/182/182
f 60/182/182 39/188/188 37/183/183
f 1/192/192 55/193/193 2/194/194
f 2/194/194 55/193/193 9/195/195
f 2/194/194 9/195/195 15/196/196
f 1/192/192 7/197/197 55/193/193
f 55/193/193 7/197/197 56/198/198
f 56/198/198 7/197/197 5/199/199
f 56/198/198 5/199/199 15/196/196
f 15/196/196 5/199/199 2/194/194
f 9/195/195 55/193/193 10/200/200
f 10/200/200 55/193/193 72/201/201
f 10/200/200 72/201/201 18/202/202
f 18/202/202 72/201/201 21/203/203
f 21/203/203 72/201/201 23/204/204
f 23/204/204 72/201/201 69/205/205
f 23/204/204 69/205/205 17/206/206
f 17/206/206 69/205/205 13/207/207
f 17/206/206 13/207/207 10/200/200
f 15/196/196 13/207/207 56/198/198
f 56/198/198 13/207/207 69/205/205
f 18/202/202 17/206/206 10/200/200
f 70/208/208 69/209/209 66/210/210
f 66/210/210 69/209/209 72/211/211
f 66/210/210 72/211/211 71/212/212
f 71/212/212 67/213/213 66/210/210
f 68/214/214 62/215/215 61/216/216
# 72 vertices
# 216 texture params
# 216 normals
# 164 facets

# 1 groups
