# WaveFront *.obj file (generated by Autodesk ATF)

mtllib window.mtl

g window

v -1.657051 18.431452 -6.700000
v -5.987178 15.931452 -6.700000
v -6.037178 16.018055 -6.700000
v -1.707051 18.518055 -6.700000
v -1.657051 18.431452 6.700000
v -1.707051 18.518055 6.700000
v -5.987178 15.931452 6.700000
v -6.037178 16.018055 6.700000
vt 0.000000 -0.000000 0.000000
vt 500.000000 -0.000000 0.000000
vt -0.000000 10.000000 0.000000
vt 500.000000 10.000000 0.000000
vt 0.000000 0.000000 0.000000
vt 1340.000000 -0.000000 0.000000
vt 0.000000 10.000000 0.000000
vt 1340.000000 10.000000 0.000000
vt 0.000000 0.000000 0.000000
vt 500.000000 0.000000 0.000000
vt 0.000000 10.000000 0.000000
vt 500.000000 10.000000 0.000000
vt 0.000000 0.000000 0.000000
vt 1340.000000 0.000000 0.000000
vt -0.000000 10.000000 0.000000
vt 1340.000000 10.000000 0.000000
vt 250.000000 670.000000 0.000000
vt -250.000000 670.000000 0.000000
vt 250.000000 -670.000000 0.000000
vt -250.000000 -670.000000 0.000000
vt -670.000000 -250.000000 0.000000
vt 670.000000 -250.000000 0.000000
vt -670.000000 250.000000 0.000000
vt 670.000000 250.000000 0.000000
vn 0.000000 0.000000 -100.000000
vn 0.000000 0.000000 -100.000000
vn 0.000000 0.000000 -100.000000
vn 0.000000 0.000000 -100.000000
vn 86.602540 50.000000 0.000000
vn 86.602540 50.000000 0.000000
vn 86.602540 50.000000 0.000000
vn 86.602540 50.000000 0.000000
vn -0.000000 -0.000000 100.000000
vn -0.000000 -0.000000 100.000000
vn -0.000000 -0.000000 100.000000
vn -0.000000 -0.000000 100.000000
vn -86.602540 -50.000000 -0.000000
vn -86.602540 -50.000000 -0.000000
vn -86.602540 -50.000000 -0.000000
vn -86.602540 -50.000000 -0.000000
vn -50.000000 86.602540 0.000000
vn -50.000000 86.602540 0.000000
vn -50.000000 86.602540 0.000000
vn -50.000000 86.602540 0.000000
vn 50.000000 -86.602540 -0.000000
vn 50.000000 -86.602540 -0.000000
vn 50.000000 -86.602540 -0.000000
vn 50.000000 -86.602540 -0.000000
usemtl Steel_-_Satin
f 1/1/1 2/2/2 4/3/3
f 4/3/3 2/2/2 3/4/4
f 5/5/5 1/6/6 6/7/7
f 6/7/7 1/6/6 4/8/8
f 7/9/9 5/10/10 8/11/11
f 8/11/11 5/10/10 6/12/12
f 2/13/13 7/14/14 3/15/15
f 3/15/15 7/14/14 8/16/16
f 8/17/17 6/18/18 3/19/19
f 3/19/19 6/18/18 4/20/20
f 7/21/21 2/22/22 5/23/23
f 5/23/23 2/22/22 1/24/24
# 8 vertices
# 24 texture params
# 24 normals
# 12 facets

# 1 groups
